PathFileType	4	(X/Y/Z)	Walk4.trc
DataRate	CameraRate	NumFrames	NumMarkers	Units	OrigDataRate	OrigDataStartFrame	OrigNumFrames
200.000000	200.000000	8	59	mm	200.000000	274	506
Frame#	Times		LBHD		RBHD		C7		T10		RBack		LPSI		RPSI		RElbowM		RCAR		RFA1		LUA1		RTB1		RTH3		RTB4		LACR1		LCAR		RTH2		LWRU		RTB3		LWRR		RMT1		RWRU		RToe		LElbowM		RCAL		CLAV		RUA1		RTH4		RTH1		RWRR		RMT5		LFA1		LLFC		RACR1		RTB2		LTH1		LTH4		LFHD		RElbow		RLFC		RFHD		LElbow		RMMAL		STRN		LTH3		RLMAL		RASI		LTB2		LTH2		LTB3		LCAL		LASI		LMT5		LMT1		LTB1		LToe		LTB4		LLMAL		LMMAL
			X1	Y1	Z1	X2	Y2	Z2	X3	Y3	Z3	X4	Y4	Z4	X5	Y5	Z5	X6	Y6	Z6	X7	Y7	Z7	X8	Y8	Z8	X9	Y9	Z9	X10	Y10	Z10	X11	Y11	Z11	X12	Y12	Z12	X13	Y13	Z13	X14	Y14	Z14	X15	Y15	Z15	X16	Y16	Z16	X17	Y17	Z17	X18	Y18	Z18	X19	Y19	Z19	X20	Y20	Z20	X21	Y21	Z21	X22	Y22	Z22	X23	Y23	Z23	X24	Y24	Z24	X25	Y25	Z25	X26	Y26	Z26	X27	Y27	Z27	X28	Y28	Z28	X29	Y29	Z29	X30	Y30	Z30	X31	Y31	Z31	X32	Y32	Z32	X33	Y33	Z33	X34	Y34	Z34	X35	Y35	Z35	X36	Y36	Z36	X37	Y37	Z37	X38	Y38	Z38	X39	Y39	Z39	X40	Y40	Z40	X41	Y41	Z41	X42	Y42	Z42	X43	Y43	Z43	X44	Y44	Z44	X45	Y45	Z45	X46	Y46	Z46	X47	Y47	Z47	X48	Y48	Z48	X49	Y49	Z49	X50	Y50	Z50	X51	Y51	Z51	X52	Y52	Z52	X53	Y53	Z53	X54	Y54	Z54	X55	Y55	Z55	X56	Y56	Z56	X57	Y57	Z57	X58	Y58	Z58	X59	Y59	Z59

274	1.37	-394.35	1492.3	-134.1	-397.18	1502	-11.081	-430.39	1359.6	-66.071	-462.24	1089.1	-72.925	-462.86	1257.8	60.479	-483.63	901.07	-103.81	-492.2	901.55	-4.4801	-459.01	968.54	125.01	-404.33	744.05	276.97	-447.34	881.52	227.74	-334.81	1120.6	-310.44	-167.37	352.5	46.855	-251.07	567.55	124.65	-178.7	261.78	51.479	-344.25	1294.9	-226.86	-207.08	751.18	-359.69	-217.57	687.6	117.44	-265.51	773.23	-348.16	-175.21	168.24	53.461	-205.34	788.09	-307.65	-111.34	77.707	58.545	-436.58	768.26	228.94	-59.95	63.718	82.746	-396.9	966.23	-264.39	-268.87	52.82	60.403	-308.93	1276.5	-55.474	-381.69	1141.4	172.64	-284.04	656.18	142.83	-312.75	738.82	162.88	-361.89	773.71	236.98	-138.29	57.567	104.46	-317.48	883.54	-346.95	-382.2	448.36	-173.31	-365.1	1294.5	92.809	-212.18	264.51	115.56	-312.21	733.61	-233.49	-322.65	644.47	-205.45	-222.42	1485.3	-109.12	-429.83	1005.5	208.82	-203.47	480.6	117.24	-217.49	1495.4	-33.204	-366.5	1001	-328.65	-201.36	90.995	17.039	-246.64	1172.1	-56.244	-338.34	553.95	-180.55	-216.3	84.188	95.827	-274.06	881.6	99.597	-423.51	247.01	-151.85	-268.85	653.82	-156.1	-424.14	157.29	-73.835	-537.32	37.469	-85.096	-263.35	862.06	-190.85	-401.32	34.037	-116.68	-383.84	48.336	-57.894	-378.29	333.88	-86.959	-325.73	24.407	-60.686	-409.65	247.17	-82.743	-483.61	67.157	-120.87	-475.57	71.861	-40.659
275	1.375	-388.93	1491.5	-133.63	-391.72	1501.2	-10.609	-424.94	1358.8	-65.623	-457.04	1088.4	-72.403	-457.5	1257.1	60.867	-478.77	900.67	-103.07	-486.91	900.79	-3.7996	-455.28	968.22	125.49	-402.43	743.53	277.87	-444.29	881.29	228.37	-329.04	1119.7	-309.96	-159.36	352.66	46.221	-245.55	566.52	124.6	-168.01	261.67	51.144	-338.85	1294.1	-226.45	-200.32	750.87	-358.74	-212.15	686.57	117.06	-258.82	772.74	-347.29	-161.86	168.26	53.295	-198.73	787.91	-306.82	-95.345	78.914	57.583	-434.32	767.95	229.69	-43.287	66.039	81.084	-391.25	965.25	-264.24	-252.22	50.453	61.518	-303.56	1275.6	-55.047	-377.01	1140.7	173.09	-278.43	655.16	142.92	-307.02	737.8	163.08	-359.65	772.99	238.09	-121.26	58.336	103.88	-311.26	882.81	-346.42	-379.49	447.9	-173.22	-359.67	1293.6	93.291	-200.79	263.65	115.6	-308.27	732.9	-233.39	-319.05	643.73	-205.37	-216.98	1484.5	-108.69	-425.89	1005.1	209.32	-197.61	479.78	116.89	-212.02	1494.6	-32.784	-360.72	1000.2	-328.39	-186.22	90.251	17.191	-241.36	1171.2	-55.898	-335.11	553.28	-180.48	-200.02	83.156	96.197	-268.67	880.42	99.961	-422.07	246.74	-151.75	-265.1	652.79	-156.22	-423.27	157.03	-73.755	-537.33	37.837	-84.952	-252.66	862.28	-190.4	-401.36	34.014	-116.62	-383.78	48.342	-57.857	-376.12	333.26	-86.882	-325.68	24.426	-60.758	-408.17	246.8	-82.626	-483.45	67.306	-120.73	-475.36	72.008	-40.518
276	1.38	-383.52	1490.6	-133.14	-386.27	1500.3	-10.125	-419.5	1358	-65.163	-451.82	1087.7	-71.859	-452.15	1256.4	61.263	-473.88	900.26	-102.31	-481.58	900.01	-3.093	-451.52	967.87	126	-400.42	742.99	278.73	-441.15	881.05	229.02	-323.25	1118.8	-309.45	-151.53	352.79	45.542	-240.14	565.4	124.61	-157.53	261.61	50.754	-333.45	1293.2	-226.03	-193.59	750.53	-357.79	-206.77	685.45	116.72	-252.16	772.21	-346.41	-148.76	168.4	53.034	-192.15	787.69	-305.97	-79.644	80.247	56.438	-431.97	767.63	230.44	-26.938	68.469	79.178	-385.58	964.27	-264.06	-235.77	48.35	62.58	-298.19	1274.7	-54.611	-372.32	1140	173.54	-272.88	654.07	143.06	-301.32	736.74	163.3	-357.31	772.24	239.14	-104.48	59.288	103.13	-305.04	882.07	-345.88	-376.79	447.43	-173.12	-354.25	1292.7	93.774	-189.52	262.88	115.59	-304.33	732.19	-233.29	-315.47	642.99	-205.27	-211.55	1483.7	-108.26	-421.89	1004.7	209.84	-191.87	478.87	116.6	-206.57	1493.8	-32.352	-354.91	999.38	-328.11	-171.35	89.678	17.271	-236.08	1170.2	-55.545	-331.89	552.61	-180.41	-183.93	82.345	96.469	-263.22	879.2	100.28	-420.64	246.48	-151.63	-261.33	651.74	-156.34	-422.41	156.78	-73.658	-537.34	38.241	-84.771	-241.99	862.5	-189.94	-401.42	33.997	-116.54	-383.72	48.352	-57.808	-373.95	332.65	-86.801	-325.63	24.444	-60.833	-406.68	246.44	-82.5	-483.29	67.481	-120.57	-475.15	72.178	-40.354
277	1.385	-378.12	1489.7	-132.64	-380.84	1499.4	-9.6262	-414.08	1357.2	-64.693	-446.59	1086.9	-71.294	-446.8	1255.6	61.665	-468.96	899.83	-101.53	-476.22	899.19	-2.358	-447.74	967.49	126.54	-398.28	742.43	279.55	-437.92	880.78	229.68	-317.44	1117.9	-308.92	-143.88	352.9	44.819	-234.84	564.21	124.67	-147.25	261.59	50.312	-328.06	1292.4	-225.59	-186.88	750.15	-356.82	-201.43	684.23	116.43	-245.51	771.65	-345.51	-135.91	168.66	52.684	-185.61	787.43	-305.09	-64.263	81.689	55.122	-429.52	767.28	231.2	-10.931	70.987	77.041	-379.91	963.27	-263.85	-219.58	46.503	63.595	-292.81	1273.7	-54.165	-367.61	1139.3	174.01	-267.4	652.93	143.23	-295.65	735.64	163.55	-354.87	771.47	240.13	-87.984	60.407	102.22	-298.81	881.31	-345.31	-374.09	446.97	-173.02	-348.84	1291.8	94.259	-178.38	262.2	115.55	-300.4	731.46	-233.19	-311.88	642.25	-205.17	-206.13	1482.8	-107.81	-417.84	1004.3	210.38	-186.24	477.9	116.35	-201.12	1493	-31.907	-349.09	998.52	-327.8	-156.78	89.265	17.286	-230.79	1169.2	-55.184	-328.68	551.94	-180.34	-168.07	81.747	96.645	-257.72	877.92	100.55	-419.21	246.23	-151.5	-257.56	650.69	-156.48	-421.53	156.55	-73.542	-537.34	38.683	-84.55	-231.33	862.72	-189.48	-401.48	33.987	-116.46	-383.66	48.366	-57.748	-371.78	332.04	-86.711	-325.58	24.461	-60.909	-405.18	246.09	-82.361	-483.13	67.681	-120.39	-474.92	72.373	-40.166
278	1.39	-372.74	1488.8	-132.12	-375.41	1498.5	-9.114	-408.66	1356.3	-64.211	-441.34	1086.1	-70.709	-441.45	1254.8	62.073	-464.02	899.39	-100.72	-470.82	898.35	-1.593	-443.92	967.08	127.1	-396.02	741.84	280.34	-434.6	880.48	230.36	-311.63	1117	-308.37	-136.39	352.99	44.051	-229.64	562.94	124.78	-137.19	261.62	49.823	-322.67	1291.5	-225.14	-180.19	749.74	-355.84	-196.13	682.92	116.2	-238.89	771.06	-344.61	-123.33	169.01	52.254	-179.09	787.13	-304.2	-49.232	83.218	53.651	-426.97	766.91	231.96	4.7033	73.572	74.692	-374.22	962.25	-263.61	-203.68	44.902	64.567	-287.44	1272.8	-53.709	-362.9	1138.5	174.49	-261.98	651.72	143.45	-290.01	734.5	163.82	-352.33	770.69	241.08	-71.802	61.674	101.17	-292.59	880.53	-344.72	-371.38	446.52	-172.91	-343.45	1290.9	94.745	-167.39	261.62	115.46	-296.46	730.72	-233.09	-308.29	641.51	-205.07	-200.73	1481.9	-107.35	-413.73	1003.8	210.93	-180.7	476.85	116.13	-195.68	1492.1	-31.449	-343.24	997.64	-327.47	-142.53	88.998	17.246	-225.5	1168.2	-54.814	-325.46	551.27	-180.26	-152.47	81.351	96.731	-252.16	876.61	100.78	-417.79	245.98	-151.34	-253.77	649.63	-156.63	-420.66	156.34	-73.406	-537.33	39.164	-84.287	-220.72	862.95	-189.03	-401.54	33.985	-116.36	-383.59	48.384	-57.677	-369.6	331.44	-86.613	-325.53	24.478	-60.988	-403.67	245.76	-82.208	-482.97	67.91	-120.18	-474.68	72.593	-39.951
279	1.395	-367.37	1487.9	-131.6	-369.99	1497.6	-8.5876	-403.24	1355.4	-63.718	-436.07	1085.2	-70.106	-436.11	1254	62.487	-459.05	898.93	-99.886	-465.38	897.49	-0.79651	-440.06	966.65	127.69	-393.62	741.23	281.11	-431.2	880.15	231.05	-305.82	1116	-307.79	-129.06	353.04	43.238	-224.54	561.6	124.93	-127.36	261.68	49.29	-317.29	1290.6	-224.68	-173.53	749.3	-354.84	-190.88	681.53	116.03	-232.28	770.44	-343.71	-111.06	169.45	51.752	-172.6	786.79	-303.28	-34.576	84.815	52.044	-424.32	766.53	232.71	19.934	76.199	72.158	-368.52	961.23	-263.34	-188.1	43.535	65.498	-282.07	1271.8	-53.243	-358.17	1137.7	175	-256.62	650.46	143.69	-284.4	733.32	164.11	-349.68	769.89	241.99	-55.972	63.07	99.982	-286.37	879.74	-344.11	-368.67	446.07	-172.8	-338.06	1290	95.234	-156.55	261.14	115.33	-292.52	729.98	-233	-304.69	640.77	-204.96	-195.34	1481.1	-106.88	-409.58	1003.3	211.5	-175.25	475.74	115.95	-190.26	1491.3	-30.979	-337.38	996.74	-327.11	-128.63	88.863	17.158	-220.2	1167.3	-54.435	-322.23	550.6	-180.17	-137.16	81.144	96.731	-246.54	875.26	100.99	-416.37	245.76	-151.17	-249.96	648.56	-156.79	-419.77	156.14	-73.251	-537.32	39.685	-83.979	-210.16	863.17	-188.57	-401.62	33.992	-116.25	-383.52	48.408	-57.596	-367.41	330.85	-86.505	-325.48	24.493	-61.067	-402.14	245.44	-82.041	-482.81	68.169	-119.94	-474.43	72.839	-39.709
280	1.4	-362.01	1486.9	-131.05	-364.59	1496.6	-8.0468	-397.84	1354.5	-63.214	-430.78	1084.4	-69.485	-430.76	1253.1	62.907	-454.05	898.46	-99.026	-459.91	896.61	0.032564	-436.16	966.18	128.29	-391.1	740.6	281.84	-427.72	879.8	231.74	-300.01	1115.1	-307.2	-121.89	353.07	42.383	-219.54	560.2	125.12	-117.75	261.77	48.718	-311.91	1289.8	-224.21	-166.88	748.83	-353.84	-185.66	680.07	115.92	-225.7	769.8	-342.79	-99.087	169.96	51.187	-166.14	786.41	-302.34	-20.327	86.456	50.327	-421.56	766.11	233.46	34.73	78.844	69.474	-362.82	960.19	-263.05	-172.89	42.386	66.386	-276.7	1270.8	-52.765	-353.43	1136.9	175.52	-251.32	649.15	143.98	-278.84	732.11	164.42	-346.91	769.08	242.85	-40.533	64.573	98.689	-280.15	878.92	-343.47	-365.95	445.63	-172.68	-332.68	1289	95.725	-145.89	260.76	115.16	-288.56	729.23	-232.9	-301.07	640.04	-204.84	-189.95	1480.2	-106.4	-405.39	1002.8	212.08	-169.88	474.57	115.77	-184.84	1490.4	-30.496	-331.51	995.82	-326.73	-115.1	88.844	17.03	-214.9	1166.2	-54.045	-318.99	549.94	-180.07	-122.2	81.108	96.651	-240.85	873.89	101.16	-414.95	245.55	-150.98	-246.12	647.49	-156.96	-418.88	155.96	-73.077	-537.31	40.25	-83.628	-199.67	863.4	-188.12	-401.71	34.007	-116.13	-383.44	48.438	-57.505	-365.21	330.26	-86.387	-325.43	24.507	-61.148	-400.6	245.13	-81.859	-482.66	68.458	-119.68	-474.16	73.114	-39.441
281	1.405	-356.65	1485.9	-130.49	-359.19	1495.6	-7.4913	-392.43	1353.6	-62.7	-425.47	1083.5	-68.847	-425.41	1252.2	63.335	-449.03	897.96	-98.141	-454.41	895.71	0.89482	-432.2	965.69	128.9	-388.44	739.96	282.56	-424.16	879.42	232.44	-294.21	1114.1	-306.6	-114.86	353.06	41.488	-214.61	558.75	125.34	-108.39	261.88	48.108	-306.54	1288.9	-223.72	-160.25	748.34	-352.82	-180.48	678.55	115.88	-219.13	769.14	-341.87	-87.449	170.53	50.566	-159.71	786	-301.38	-6.5113	88.12	48.528	-418.7	765.68	234.2	49.059	81.48	66.68	-357.1	959.15	-262.72	-158.09	41.435	67.227	-271.32	1269.8	-52.274	-348.68	1136.2	176.05	-246.08	647.79	144.29	-273.31	730.85	164.76	-344.04	768.25	243.67	-25.525	66.158	97.31	-273.93	878.1	-342.82	-363.21	445.19	-172.54	-327.3	1288	96.219	-135.43	260.47	114.94	-284.59	728.48	-232.8	-297.44	639.31	-204.71	-184.58	1479.3	-105.91	-401.16	1002.2	212.67	-164.57	473.37	115.61	-179.43	1489.5	-29.998	-325.63	994.88	-326.31	-101.97	88.924	16.867	-209.59	1165.2	-53.642	-315.74	549.27	-179.95	-107.61	81.224	96.494	-235.09	872.51	101.32	-413.53	245.36	-150.78	-242.25	646.43	-157.12	-417.97	155.79	-72.888	-537.28	40.859	-83.234	-189.27	863.62	-187.66	-401.8	34.032	-116	-383.35	48.474	-57.406	-362.99	329.68	-86.26	-325.38	24.52	-61.228	-399.04	244.84	-81.666	-482.5	68.779	-119.39	-473.87	73.418	-39.146
